<svg width="400" height="480" xmlns="http://www.w3.org/2000/svg" version="1.1">
 <metadata id="metadata8">image/svg+xml</metadata>

 <g>
  <title>Layer 1</title>
  <path fill="#ffffff" fill-rule="evenodd" stroke="#000000" stroke-width="0.1638" stroke-linecap="round" stroke-linejoin="round" stroke-miterlimit="4" stroke-dashoffset="0" id="path4887" d="m399.50003,239.99996a199.50001,239.49999 0 1 1 -399.00003,0a199.50001,239.49999 0 1 1 399.00003,0z"/>
  <path fill="#005fbf" stroke="#005fbf" stroke-width="1" stroke-miterlimit="4" id="path3341" d="m200.01739,0.49999c-110.18319,0 -199.51739,107.23958 -199.51739,239.51739c0,132.27779 89.3342,239.48261 199.51739,239.48261c110.18319,0 199.4826,-107.20482 199.4826,-239.48261c0,-132.27781 -89.29941,-239.51739 -199.4826,-239.51739zm8.14357,19.39778c9.13184,0.47953 18.09426,1.79888 26.83201,3.82394c-0.80919,2.62703 -4.38137,6.5653 -10.23167,12.75803c-5.29444,5.60436 -12.14574,16.91163 -12.14574,20.05828c0,0.0813 -0.007,0.16263 0,0.24334c2.19061,0.97959 4.26777,2.18559 6.15987,3.61536c1.35112,-0.76867 3.2116,-2.70791 6.85591,-6.63974c3.97684,-4.29059 11.07081,-10.49586 15.76511,-13.80093c4.69431,-3.30508 9.48246,-7.08916 10.64928,-8.3779c0.47813,-0.52808 1.17933,-1.40609 1.87929,-2.22483c7.81252,2.8785 15.39538,6.37803 22.72542,10.42891c-2.0611,2.63453 -6.63079,6.51319 -10.96249,8.79505c-2.9626,1.56065 -10.98088,4.65691 -17.8184,6.84832c-11.52278,3.69304 -21.26603,8.13027 -23.38666,10.56797c1.62102,2.04231 2.99222,4.30171 4.07179,6.70927l8.07396,-2.67676c9.96354,-3.3045 15.39666,-4.52662 30.55578,-6.81356c11.0889,-1.67289 17.15458,-3.71458 25.23113,-7.47405c1.12879,-0.52543 2.73099,-1.87475 4.14139,-3.09391c7.14776,5.32019 13.97914,11.17726 20.42852,17.5901c-3.21609,2.78875 -14.50479,4.62459 -40.0218,4.48443c-22.4196,-0.12314 -28.62048,0.19734 -36.33284,1.87721c-4.33038,0.94322 -8.12489,1.6342 -9.98805,2.5377c0.43038,2.0754 0.66123,4.22833 0.66123,6.43116c0,0.23145 0.004,0.465 0,0.69526c2.82993,0.31025 8.63735,-0.04503 20.84614,0.13905c12.95278,0.1953 23.98063,1.01973 31.18221,2.29437c12.32924,2.1822 31.60831,2.80441 43.11914,1.39052l7.30833,-0.90384c0.44137,0.56393 0.88602,1.1339 1.32246,1.70339l6.12507,9.35126c4.24056,6.46491 8.22664,12.58018 12.00654,18.5287c19.13318,34.78292 30.31217,76.45203 30.31217,121.25351c0,30.04392 -5.02008,58.66384 -14.09463,84.7523l-36.47205,-78.77306l0,-3.78918l15.62591,-8.37789l1.67047,-0.90383l-18.96685,-12.20183l0,-26.83707c4.35619,-3.34104 15.48667,3.47312 21.82058,-2.98963c-11.47426,-2.05386 -12.81888,-6.41278 -21.82058,-5.59685l0,-2.71151c0.0185,-0.59393 -0.51879,-1.14742 -1.11365,-1.14719c-0.59487,-0.00023 -1.13219,0.55326 -1.11365,1.14719l0,37.89171l-19.31487,12.44518l1.67047,0.90383l15.97392,8.58647l0,3.65012l-37.02886,79.85072l-12.18056,-47.3125l0,-11.33275l15.62591,-8.3779l1.63567,-0.90384l-18.37523,-11.8542l0,-20.30162l14.54706,-8.9341l1.39206,-0.86908l-16.11313,-11.8542l0,-35.87546c3.67552,-5.00225 15.82039,3.11356 22.55142,-3.75441c-11.77387,-2.10749 -12.89193,-6.6125 -22.55142,-5.49256l0,-3.78917c0.0225,-0.63034 -0.58943,-1.20664 -1.21805,-1.14718c-0.0471,0.009 -0.0937,0.0203 -0.13921,0.0348c-0.49797,0.11139 -0.88232,0.60281 -0.87004,1.11241l0,48.11206l-0.10434,0.0695l-17.08758,12.58421l1.39207,0.86908l14.86027,9.10792l0,19.88447l-18.75805,12.09753l1.67048,0.90384l15.97392,8.58647l0,3.68489l-49.94025,54.89085l-5.49865,0c-10.42334,1.00186 -3.23676,5.7731 0,9.69888c6.46315,10.75627 14.30734,19.75361 25.33554,24.64701c-29.39327,-2.20712 -63.37476,-6.52642 -93.33781,-9.24698l1.21806,-4.55396c15.01603,-3.72487 24.80525,-14.16247 32.60907,-27.14994c3.23676,-3.92578 10.42334,-8.69701 0,-9.69888l-5.88147,0l0,-23.01314c3.67552,-5.00225 15.85519,3.11356 22.58622,-3.75441c-11.78253,-2.10904 -12.907,-6.62167 -22.58622,-5.49256l0,-2.5377c0.0185,-0.59393 -0.51878,-1.14741 -1.11365,-1.14719c-0.0705,0.004 -0.14052,0.0166 -0.20881,0.0348c-0.51049,0.0973 -0.91399,0.59336 -0.90484,1.11241l0,34.79781l-15.83471,0l0,-46.82582l12.25015,-25.82895c5.49032,-1.61836 12.27299,10.30028 21.12455,7.47406c-9.42001,-7.36261 -8.30465,-11.91242 -17.36598,-15.43479l1.74008,-3.68489l-1.00925,-0.48668l-16.73955,35.31926l0,-29.13143c0.0275,-0.95919 -0.92621,-1.82362 -1.87929,-1.7034c-0.81462,0.10223 -1.48509,0.88361 -1.46166,1.7034l0,36.18832l-20.08051,42.41092l-1.04404,0l-19.8021,-42.75854l0,-40.04703c0.0248,-0.94621 -0.90208,-1.80221 -1.84448,-1.7034c-0.82683,0.0863 -1.51821,0.87327 -1.49647,1.7034l0,38.48269l-6.50789,14.11379l-15.03428,-32.39915l0,-21.69215l15.62591,-8.37788l1.63567,-0.86908l-18.93205,-12.20183l0,-36.36215c3.93113,-4.39455 15.74708,3.28815 22.34259,-3.44154c-11.67988,-2.09067 -12.89439,-6.58401 -22.34259,-5.56208l0,-1.56435c0.0225,-0.63034 -0.58944,-1.20664 -1.21806,-1.14718c-0.0471,0.009 -0.0937,0.0203 -0.13921,0.0348c-0.49796,0.1114 -0.88232,0.60282 -0.87003,1.11242l0,46.68677l-19.31488,12.44517l1.67048,0.86908l15.97392,8.58647l0,21.48356l-29.02451,62.60825l-0.69603,0l-4.4894,-18.28536l10.02285,0c0.58835,0.008 1.11364,-0.52466 1.11364,-1.11242c0,-0.58777 -0.52529,-1.12073 -1.11364,-1.11242l-10.57968,0l-1.60088,-6.50069l0,-18.32012l15.62591,-8.3779l1.67047,-0.86908l-18.41003,-11.8542l0,-8.79505l14.54707,-8.93409l1.39206,-0.86908l-16.11318,-11.8888l0,-17.76392l0.0696,1.77292c3.21344,-6.06844 15.95128,2.81366 22.89944,-4.27585c-11.94145,-2.13749 -12.92122,-6.75869 -22.96903,-5.45781l0,-1.63385c0.0185,-0.59393 -0.51879,-1.14742 -1.11365,-1.14719c-0.59487,-0.00023 -1.13218,0.55326 -1.11365,1.14719l0,26.59373l-0.0696,0.0347l-15.79991,11.64562l-1.32246,0.97337l1.39205,0.86908l14.86027,9.10792l0,8.41265l-18.75804,12.06277l1.67047,0.86908l15.97392,8.58648l0,18.11154l-1.60086,6.50069l-10.54487,0c-0.0462,-0.003 -0.0929,-0.003 -0.13922,0c-0.5831,0.0364 -1.08048,0.59948 -1.04404,1.18194c0.0364,0.58247 0.60014,1.07929 1.18326,1.0429l9.98805,0l-4.48941,18.28536l-9.81404,0c-6.0914,-21.91596 -9.43123,-45.35489 -9.43123,-69.73467c0,-53.33018 15.77692,-102.22244 42.0403,-140.33842c0.008,0.12557 0.0266,0.25723 0.0348,0.3824l4.07179,-6.1183c1.17801,-1.59571 2.369,-3.17391 3.58456,-4.72777l6.47309,0.83431c10.86663,1.47693 31.42394,0.8344 44.12839,-1.39052c8.09993,-1.41854 17.85345,-2.08575 31.73903,-2.19007l19.59329,-0.17382c-0.006,-0.24171 0,-0.487 0,-0.73002c0,-1.93387 0.18826,-3.82866 0.52202,-5.66638c-0.80694,-0.6677 -2.91371,-1.7342 -8.42198,-3.05915c-6.93333,-1.66784 -13.17564,-2.02583 -36.6809,-2.01637c-28.1288,0.01138 -34.32016,-0.59973 -38.52534,-3.82394c-0.76168,-0.584 -1.19244,-1.01202 -1.11365,-1.63386c5.59563,-5.49334 11.45748,-10.57974 17.57479,-15.26098c1.60521,-0.05865 4.26707,0.77349 7.13433,2.22483c6.85932,3.47204 15.68437,5.95472 24.32629,6.88309c7.84289,0.84253 28.43305,5.62315 33.82713,7.85645c1.89331,0.78388 3.22511,1.22417 4.24579,1.35575c1.08431,-2.35679 2.43111,-4.5697 4.03698,-6.57021c-0.0737,-0.10482 -0.15386,-0.20484 -0.24361,-0.31287c-1.96967,-2.37075 -11.49075,-6.59422 -23.97831,-10.6376c-15.76679,-5.10517 -27.82404,-11.48371 -28.18927,-14.73953c7.21861,-4.03341 14.68589,-7.53423 22.3774,-10.42892c0.88973,0.43438 1.82021,1.11813 2.50572,1.87721c1.16683,1.29206 6.53753,5.37637 11.93694,9.07315c5.39941,3.69679 12.37227,9.63319 15.4867,13.20996c2.88172,3.30952 4.84216,5.19081 6.50789,5.94448c1.97267,-1.39897 4.09636,-2.58955 6.36869,-3.51106c-0.23798,-1.15508 -1.20702,-2.98109 -3.06254,-6.50069c-2.12583,-4.03234 -7.26254,-11.13749 -11.41492,-15.78243c-4.15226,-4.64482 -7.55188,-9.2526 -7.55188,-10.25504c0,-0.08971 0.008,-0.18863 0.0347,-0.2781c8.19537,-1.85193 16.58579,-3.08393 25.12674,-3.5806c0.68455,2.90593 2.45825,16.64178 3.48015,27.11518c0.35549,3.64337 0.79211,5.88196 1.67048,7.19595c1.17462,-0.13241 2.3745,-0.20858 3.58456,-0.20858c1.36785,0 2.715,0.10951 4.03698,0.2781c0.96425,-2.09698 1.49038,-6.9053 2.61012,-18.07678c0.58666,-5.85313 1.2651,-12.35297 1.77488,-16.33863l0.0001,0zm-8.10877,47.17345c-5.50727,0 -13.52949,6.65924 -16.53074,13.73141c-1.28419,3.02607 -1.95429,4.60975 3.86297,7.96073c4.77183,2.74878 7.33757,1.88055 6.12508,11.29799c-0.56167,4.36248 -0.22065,5.22925 -1.74008,4.93635c-0.83231,-0.16043 -2.15617,-1.10339 -4.10659,-2.88533c-3.36472,-3.07407 -23.43904,-8.34313 -29.54653,-8.34313c-8.57561,0 -24.03828,5.00452 -42.94514,13.90522c-13.00565,6.12261 -24.89824,10.56796 -28.25888,10.56796c-3.61645,0 -7.14687,4.01352 -5.77705,6.57022c2.59898,4.85086 21.02221,8.87233 31.32141,6.84832c3.65408,-0.7181 11.07816,-1.33913 16.53074,-1.39052c8.345,-0.0787 10.54551,0.28846 13.85103,2.32912c4.90864,3.03036 16.64111,21.10403 16.11313,24.82082c-0.2486,1.75001 -3.27133,4.5146 -9.81404,8.9341c-16.30737,11.01535 -20.20068,17.54007 -14.26865,23.84745c3.07778,3.27251 7.81775,3.31638 14.92988,0.17382c3.77514,-1.66807 7.31463,-2.3255 11.83253,-2.19008c8.28387,0.24829 10.898,1.30135 16.80916,6.74403c2.65753,2.44692 6.32092,5.22176 8.10876,6.15306c3.86395,2.01277 4.39842,2.056 7.20393,0.55621c1.84299,-0.98524 2.15213,-2.39103 2.15769,-9.73365c0.007,-9.78159 1.59454,-16.84938 4.21099,-18.87634c0.99929,-0.77415 4.88003,-1.39051 8.77,-1.39051c6.25406,0 7.40975,-0.36466 10.99729,-3.51108c2.20443,-1.93337 5.20261,-5.91377 6.68191,-8.82981c1.56767,-3.09023 3.75669,-5.61955 5.22023,-6.08353c1.38104,-0.43784 5.50284,-3.65884 9.18762,-7.16119c9.64943,-9.17169 10.36771,-9.43987 23.97828,-8.89934c22.74231,0.90322 25.24706,0.60579 35.07998,-4.38014c10.26342,-5.20422 19.48888,-12.62815 19.48888,-15.67814c0,-2.73425 -2.51249,-3.96744 -10.02286,-4.83206c-6.53023,-0.75179 -11.05416,-2.06384 -34.14033,-9.97699c-8.40551,-2.88112 -19.90613,-5.8566 -27.00602,-6.98737c-11.90287,-1.89574 -12.64046,-1.88509 -20.18491,0.06953c-4.31045,1.11674 -7.45805,3.43181 -7.62155,3.1982c-0.16348,-0.23362 -1.71019,-5.01979 -2.81892,-8.69077c-4.77861,-15.8218 -10.20676,-22.80455 -17.6792,-22.80455l0,-0.00001zm-1.77488,7.92598c0.51687,0.01035 0.94836,0.14166 1.39206,0.10429c0.53244,-0.04484 2.27912,0.06197 2.81893,0.38239c3.37181,2.00143 7.75261,15.10346 11.62372,29.96574c6.1008,23.42262 6.29909,24.59041 6.29909,35.66688c0,16.48422 -4.27956,22.73505 -15.5911,22.73505c-11.14211,0 -15.35117,4.75318 -16.39154,18.49393c-0.41826,5.52408 -0.1868,8.41487 -0.69603,9.62936c-0.56667,1.35149 -3.55912,-2.4771 -5.18544,-4.20633c-7.4587,-7.93061 -21.07535,-10.48395 -32.57428,-6.11829c-6.62479,2.51516 -10.07616,4.0491 -8.83959,2.22483c0.88263,-1.30209 4.52687,-4.95639 9.39642,-8.2736c37.76092,-25.72327 50.9495,-43.87627 50.9495,-70.18659c0,-10.74656 0.18173,-16.17707 -5.84666,-20.05828c-3.04972,-1.96347 -5.25148,-2.01574 -5.08103,-3.44154c0.15904,-1.3303 2.13605,-4.07805 5.81186,-6.32687c0.77792,-0.47592 1.39722,-0.60136 1.91409,-0.59097zm1.60087,3.82393c-0.39201,0.01705 -0.81889,0.19645 -1.25285,0.55621c-0.85746,0.71086 -1.31011,1.75186 -0.97445,2.29436c0.81239,1.31301 2.41918,1.23826 3.27135,-0.13905c0.89943,-1.4537 0.132,-2.76269 -1.04405,-2.71152zm36.50685,23.88221c8.6788,-0.10372 20.53885,1.60226 29.92935,4.90159c18.80753,6.60797 38.37159,11.68376 38.87335,12.65375c0.30625,0.59202 -5.20989,3.58985 -9.36162,5.70114c-8.40253,4.273 -11.78121,4.56067 -31.1126,2.88533c-13.6683,-1.18455 -17.99389,0.2772 -26.484,8.86458c-3.32667,3.36478 -7.68926,7.43929 -8.42198,7.43929c-1.29257,0 -0.7773,-3.57998 -2.2273,-15.22621c-0.38088,-3.05915 -1.40156,-8.03742 -2.2621,-11.05465c-2.03085,-7.12067 -2.00379,-12.22699 0.10435,-13.97474c1.68437,-1.39637 5.75521,-2.12785 10.96249,-2.19008l0.00006,0zm-79.06917,0.20858c8.39245,-0.25014 16.42508,1.43068 23.73467,5.00588c7.23197,3.53723 10.79801,8.16236 9.91845,12.86233c-1.15454,6.16933 -6.91815,15.85201 -13.46821,22.70027c-3.68648,3.85431 -7.46829,7.02213 -8.42198,7.02213c-2.23985,0 -4.9858,-3.10797 -11.55412,-13.14043c-3.15085,-4.81262 -7.16718,-9.35805 -9.84884,-11.12417c-4.51991,-2.97675 -4.59466,-2.97711 -24.91792,-2.88534c-11.21379,0.0506 -20.39372,-0.10544 -20.39372,-0.31286c0,-0.7573 26.42708,-12.91102 34.90597,-16.06053c6.77672,-2.51723 13.51824,-3.87272 20.0457,-4.06728zm117.35089,103.21149l0,7.78691l-10.54487,0l10.54487,-7.78691zm-188.6593,0.24333l0,7.68263l-11.86734,0l11.86734,-7.68263zm2.2273,0.27811l11.48452,7.40452l-11.48452,0l0,-7.40452zm188.6593,0.2781l9.46603,6.98737l-9.46603,0l0,-6.98737zm-232.43967,7.89121l0,7.75216l-10.54489,0l10.54489,-7.75216zm2.2273,0.79956l9.46602,6.9526l-9.46602,0l0,-6.9526zm216.95298,1.63386l23.21264,0l-10.57967,6.50069l-2.01849,0l-10.61448,-6.50069zm-190.05137,0.13906l26.658,0l-13.12019,7.05689l-0.41763,0l-13.12018,-7.05689zm255.47832,5.77066l0,7.64787l-11.83254,0l11.83254,-7.64787zm2.2273,0.20857l11.51933,7.4393l-11.51933,0l0,-7.4393zm-297.86663,2.5377l23.21265,0l-10.64928,6.53546l-1.94889,0l-10.61448,-6.53546zm283.28478,8.23885l26.62319,0l-13.1898,7.05689l-0.2784,0l-13.15499,-7.05689zm-273.19234,11.57609l0,7.30024l-11.3105,0l11.3105,-7.30024zm3.34096,0.20858l10.9625,7.09166l-10.9625,0l0,-7.09166zm228.33311,1.66863l12.80696,8.27361l-25.57915,0l12.77219,-8.27361zm57.77059,1.07765l35.84562,77.38254l-19.17566,0c0.002,0.12926 0.053,0.26398 0,0.38239c-0.10914,0.24364 -0.23724,0.45675 -0.34801,0.69527l-16.32195,-63.19923l0,-15.26097zm-5.56825,0.0347l0,17.38152l-21.12455,81.62363c-4.08804,-0.64194 -7.85595,-2.11117 -11.38011,-4.20627l-4.10659,-15.92147l36.61125,-78.87736l0,-0.00005zm-243.05416,1.07766l0,15.3305l-16.42634,63.47732c-6.58911,-4.71264 -10.68409,-11.2476 -10.68409,-18.45918c0,-0.12972 -0.002,-0.25313 0,-0.38239l-0.66123,0l27.77166,-59.96625zm5.56826,0l14.40785,31.07815l-6.6123,14.32238l-7.79555,-30.10479l0,-15.29574zm-58.22304,6.57021l26.658,0l-13.32899,7.16119l-13.32901,-7.16119zm230.21239,2.85057l10.71888,0l0,5.77067l-10.71888,-5.77067zm16.28713,0l10.37087,0l-10.37087,5.56209l0,-5.56209zm-166.73431,8.89934l0,25.51607l-5.91627,-12.75804l5.91627,-12.75803zm221.51198,0.27811l15.5911,60.31388c-3.78643,7.50044 -8.60412,12.28088 -15.5911,15.26097l0,-75.57485zm-248.62241,1.18193l0,65.73692c-5.85667,-1.08201 -11.14011,-3.15283 -15.45189,-6.014l15.45189,-59.72292zm5.56826,0l7.02991,27.21947l-7.02991,15.19145l0,-42.41092zm24.88312,0.10424l18.58403,40.08179l-3.96737,0c0.002,0.12961 0.0347,0.25233 0.0347,0.38239c0,4.5704 -1.64212,8.85028 -4.52419,12.58423l-10.12726,-21.90072l0,-31.14769l0.00009,0zm40.92664,0.27811l0,39.80368l-18.86245,0l18.86245,-39.80368zm171.67614,0.55621l0,75.33151c-3.98586,1.05437 -8.53494,1.7506 -13.85102,2.15531c-2.14812,0.16353 -4.2028,0.13519 -6.19468,-0.10423l20.0457,-77.38254l0,-0.00005zm-54.77767,2.29435l0,3.40678l-12.63297,49.85021l-35.77601,0l48.40898,-53.25699zm0,7.96074l0,45.29625l-11.48451,0l11.48451,-45.29625zm-167.70876,1.42529l6.5427,14.11379l0,36.32738c-1.20132,0.50342 -2.43979,0.95297 -3.72377,1.35576l-9.60523,-37.09216l6.7863,-14.70477zm173.27701,0.86907l11.44972,44.42718l-4.03698,8.656c-2.58813,-2.5993 -5.04008,-5.53939 -7.41274,-8.69077l0,-44.39241zm-230.21238,4.38014l0.45242,1.80769l-0.45242,0l0,-1.80769zm-5.56826,0.10424l0,1.70339l-0.4176,0l0.4176,-1.70339zm-0.97443,3.92823l0.97443,0l0,18.28536l-5.49863,0l4.5242,-18.28536zm6.54269,0l0.97445,0l4.48939,18.28536l-5.46384,0l0,-18.28536zm49.41823,6.98737l9.25722,35.84069c-4.1253,1.18116 -8.62152,1.84245 -13.329,1.84245c-1.15248,0 -2.28578,-0.0629 -3.41055,-0.13905l0,-21.37927l7.48233,-16.16466l0,-0.00016zm17.40079,5.04063l9.36162,20.19734c-2.43573,2.86269 -5.6264,5.34294 -9.36162,7.335l0,-27.53234zm175.2607,25.6899l3.48015,13.48806c-2.47505,-1.61395 -4.84436,-3.5218 -7.09952,-5.70114l3.61937,-7.78692zm-176.86157,37.57885c21.51756,-0.00006 45.85743,1.33053 67.68905,4.48444c43.66325,6.3078 66.08466,8.83163 92.64178,7.9955c24.49478,-0.77122 50.24768,-5.62262 75.31059,-10.28987c-0.5828,0.9678 -1.17938,1.92944 -1.77487,2.88534c-0.0747,0.11977 -0.16872,0.22805 -0.24362,0.34763c-0.69176,1.1057 -1.37951,2.21307 -2.08809,3.30249c-0.11899,0.18293 -0.22857,0.37373 -0.34801,0.55621c-0.76207,1.16154 -1.55066,2.29927 -2.33171,3.44154c-1.07454,1.57147 -2.16168,3.15774 -3.27136,4.693c-0.10112,0.13992 -0.21179,0.27755 -0.3132,0.41716c-1.21427,1.67161 -2.43417,3.30743 -3.68898,4.93636c-13.8302,2.67678 -31.2344,5.3445 -42.52751,6.77879c-12.71653,1.61507 -39.26367,2.11626 -50.67109,1.11242c-11.40742,-1.00385 -34.26686,-3.65883 -40.09141,-5.07541c-5.82454,-1.41657 -47.91655,-6.80453 -69.04631,-8.30837c-21.12975,-1.50383 -45.69329,-0.38362 -68.48948,3.47631l-0.17401,0.0347c-0.83913,-1.11611 -1.68421,-2.23784 -2.50573,-3.37202c-0.0339,-0.0469 -0.0706,-0.0921 -0.10433,-0.13905c-0.33201,-0.45909 -0.64545,-0.92835 -0.97445,-1.39053c-0.62995,-0.8891 -1.26097,-1.77554 -1.87928,-2.67675c-0.89392,-1.29612 -1.7761,-2.60637 -2.64493,-3.92822c-0.85705,-1.30918 -1.70785,-2.63015 -2.54051,-3.96299c2.11956,-0.39143 4.953,-0.95105 9.32682,-1.84245c10.52782,-2.14557 29.22312,-3.47624 50.74069,-3.4763l-0.00005,0.00007zm-3.72378,32.64267c31.10515,-0.29158 65.76227,6.83169 92.01535,10.84606c35.82572,5.47815 81.39252,6.13038 113.10511,1.84245c-1.13683,1.0923 -2.28719,2.1729 -3.44536,3.23296c-1.15818,1.06007 -2.33575,2.10137 -3.51496,3.12867c-1.17921,1.02731 -2.34982,2.03036 -3.54976,3.02439c-0.0572,0.0473 -0.11674,0.0918 -0.17401,0.13905c-1.09398,0.90408 -2.23004,1.80072 -3.34095,2.67676c-0.0507,0.0401 -0.0884,0.099 -0.13921,0.13905c-0.0327,0.0257 -0.0716,0.0439 -0.10434,0.0695c-1.18796,0.93346 -2.37758,1.84529 -3.58456,2.74628c-1.24044,0.92595 -2.46356,1.82038 -3.72377,2.71151c-1.11894,0.79124 -2.27626,1.56572 -3.41056,2.32913c-0.14321,0.0964 -0.27416,0.21692 -0.41762,0.31286c-0.56315,0.37652 -1.13847,0.74283 -1.70527,1.11242c-0.71839,0.46846 -1.43337,0.93325 -2.1577,1.39053c-15.63101,2.62463 -33.39322,0.18649 -47.08652,-1.00813c-15.29732,-1.33457 -27.92428,-3.38687 -49.55744,-6.60498c-20.8822,-3.1064 -59.01426,-7.66826 -92.98979,-6.25735c-1.62454,-1.35053 -3.25155,-2.72563 -4.83742,-4.1368c-0.0245,-0.0218 -0.0452,-0.0478 -0.0696,-0.0695c-1.52811,-1.36118 -3.0331,-2.72058 -4.52421,-4.13681c-0.36207,-0.34369 -0.71898,-0.696 -1.07884,-1.04289c-1.01607,-0.97995 -2.02961,-1.98444 -3.02774,-2.98962c-0.41065,-0.41343 -0.81047,-0.8338 -1.21805,-1.25147c-1.08236,-1.10916 -2.14137,-2.23326 -3.20175,-3.37202c-0.27487,-0.2952 -0.56186,-0.57191 -0.83524,-0.86908c9.96855,-2.6919 21.01765,-3.85466 32.57426,-3.96298l-0.00005,0.00001zm12.00655,38.03077c5.59732,-0.0512 44.73407,4.51213 71.0996,8.48218c23.95314,3.60681 36.4848,4.33299 53.76843,7.335c-0.1503,0.0469 -0.30197,0.0925 -0.45242,0.13906c-0.86764,0.26791 -1.73752,0.51188 -2.61012,0.76479c-0.60313,0.17492 -1.20425,0.35369 -1.80968,0.52144c-1.4798,0.41003 -2.96134,0.7804 -4.4546,1.14718c-1.49326,0.36678 -3.01798,0.71994 -4.52421,1.04289c-1.47057,0.3153 -2.93731,0.5961 -4.4198,0.86908c-1.71094,0.31412 -3.42445,0.61211 -5.15063,0.86908c-1.37055,0.20467 -2.76163,0.38802 -4.14139,0.55621c-1.29922,0.15837 -2.59067,0.32625 -3.89777,0.45191c-0.24451,0.0235 -0.48605,0.0471 -0.73083,0.0695c-0.73838,0.0671 -1.48654,0.11721 -2.2273,0.17382c-0.81938,0.0629 -1.64864,0.12379 -2.47092,0.17382c-0.16268,0.01 -0.32442,0.0255 -0.48722,0.0347c-1.30992,0.0755 -2.61559,0.1314 -3.93257,0.17381c-0.0931,0.003 -0.18533,-0.003 -0.27842,0c-0.57783,0.0175 -1.16096,0.0237 -1.74008,0.0347c-0.99754,0.0192 -1.99158,0.0347 -2.99293,0.0347c-1.82373,0 -3.65293,-0.0409 -5.46385,-0.10424c-1.78761,-0.0627 -3.55021,-0.15435 -5.32464,-0.2781c-0.069,-0.004 -0.13984,0.004 -0.20881,0c-1.40268,-0.0998 -2.81695,-0.21024 -4.21099,-0.34764c-1.18997,-0.11712 -2.36632,-0.27289 -3.54976,-0.41715c-1.41392,-0.17235 -2.84154,-0.34555 -4.24579,-0.5562c-0.4668,-0.0701 -0.92637,-0.16911 -1.39206,-0.24335c-1.04963,-0.16731 -2.08819,-0.33293 -3.13214,-0.52144c-1.53089,-0.27644 -3.04077,-0.58231 -4.55901,-0.90384c-0.12686,-0.0269 -0.25604,-0.0424 -0.38281,-0.0695c-1.6002,-0.3431 -3.21709,-0.71988 -4.80262,-1.11242c-0.0932,-0.0232 -0.18529,-0.0462 -0.27841,-0.0695c-1.62461,-0.4058 -3.22888,-0.82924 -4.83742,-1.28622c-1.70076,-0.4832 -3.39894,-0.99001 -5.08103,-1.52958c-1.56672,-0.50256 -3.11351,-1.04839 -4.66341,-1.5991c-0.2667,-0.0948 -0.53424,-0.18192 -0.80044,-0.2781c-1.50861,-0.54506 -2.99742,-1.11333 -4.4894,-1.70339c-1.64258,-0.64962 -3.28532,-1.31294 -4.90702,-2.01626c-1.09843,-0.47637 -2.18277,-0.99416 -3.27135,-1.49481c-0.55617,-0.25579 -1.11693,-0.50272 -1.67047,-0.76479c-0.4521,-0.21398 -0.90693,-0.44233 -1.35726,-0.6605c-1.10417,-0.53507 -2.21277,-1.07392 -3.30615,-1.63386c-1.57781,-0.80799 -3.14348,-1.64394 -4.69822,-2.50294c-1.55474,-0.85899 -3.09766,-1.73288 -4.6286,-2.64199c0.85677,-0.0673 1.75069,-0.13022 2.71452,-0.13905l0,0.0001z"/>
 </g>
</svg>